<?xml version="1.0" standalone="no"?>
<!DOCTYPE svg PUBLIC "-//W3C//DTD SVG 20010904//EN"
 "http://www.w3.org/TR/2001/REC-SVG-20010904/DTD/svg10.dtd">
<svg version="1.0" xmlns="http://www.w3.org/2000/svg"
 width="460.000000pt" height="460.000000pt" viewBox="0 0 460.000000 460.000000"
 preserveAspectRatio="xMidYMid meet">

<g transform="translate(0.000000,460.000000) scale(0.100000,-0.100000)"
fill="#000000" stroke="none">
<path d="M2 2898 l3 -1703 80 0 c65 0 93 6 150 29 122 50 124 51 118 89 -4 30
0 36 51 77 31 25 80 59 109 75 28 17 67 40 86 52 18 11 81 33 139 48 70 17
115 34 135 51 19 16 38 24 51 20 12 -3 53 -8 91 -12 39 -4 78 -11 88 -16 22
-11 23 -58 1 -58 -10 0 -14 -6 -10 -15 4 -12 2 -13 -14 -3 -14 9 -16 14 -7 20
8 5 5 8 -8 8 -12 0 -26 5 -33 12 -9 9 -12 9 -12 0 0 -7 -12 -12 -26 -12 -21 0
-24 -3 -19 -21 5 -14 0 -27 -14 -40 -36 -34 -23 -43 15 -10 l36 32 21 -28 c12
-15 24 -30 27 -33 3 -3 14 -16 24 -30 17 -24 18 -24 11 -2 -4 14 -1 28 9 37
16 17 25 9 21 -18 -2 -9 1 -14 6 -11 11 7 39 -14 39 -28 0 -6 -6 -8 -14 -5
-11 4 -10 -2 4 -26 29 -49 73 -179 63 -186 -15 -11 -67 -85 -53 -76 9 6 11 4
6 -4 -5 -7 -15 -10 -23 -7 -8 3 -12 2 -9 -2 3 -5 -22 -22 -55 -38 -71 -33 -87
-49 -31 -30 51 18 101 44 132 68 45 35 130 118 130 125 -1 5 7 25 16 46 l17
38 61 -58 c34 -33 86 -81 116 -107 30 -27 73 -65 95 -86 22 -20 53 -46 70 -56
16 -10 1 8 -34 41 -184 175 -196 190 -209 265 -20 116 -24 170 -14 170 6 0 13
-8 15 -18 2 -9 3 11 1 45 -2 34 -11 82 -19 107 -12 36 -13 54 -5 92 8 37 18
148 20 232 0 12 53 -64 70 -99 16 -36 19 -38 15 -14 -3 17 -22 55 -41 87 -37
62 -41 80 -20 97 28 23 54 -4 66 -66 14 -75 48 -187 71 -238 9 -22 23 -57 30
-77 12 -34 46 -81 66 -89 4 -2 21 -30 37 -62 16 -31 43 -70 60 -85 17 -15 41
-43 53 -63 13 -19 31 -44 43 -54 23 -21 28 -44 5 -25 -32 26 -14 -11 22 -49
21 -21 64 -67 96 -102 98 -107 111 -119 144 -135 17 -9 30 -21 27 -28 -2 -6
10 -25 27 -41 25 -24 29 -26 20 -8 -15 30 -14 32 10 28 28 -6 54 -30 81 -74
23 -39 38 -52 49 -46 9 6 42 -32 45 -51 2 -10 -5 -9 -27 7 -17 12 -32 19 -34
17 -3 -2 10 -15 28 -28 17 -13 38 -32 45 -42 7 -10 26 -25 42 -33 16 -8 34
-24 40 -34 9 -18 8 -19 -22 -11 -17 5 -41 18 -52 28 -49 42 -57 42 -11 -1 28
-25 56 -46 62 -47 7 0 12 -3 11 -7 -1 -5 6 -20 15 -35 l18 -27 -39 -40 c-22
-23 -44 -41 -50 -41 -5 0 -12 -7 -16 -15 -3 -8 -14 -15 -24 -15 -10 0 -23 -5
-29 -11 -7 -7 -21 -6 -47 5 -20 8 -36 18 -36 21 0 3 5 3 12 -1 7 -4 8 -3 4 5
-4 6 -11 9 -15 7 -4 -3 -78 65 -164 150 -224 219 -208 191 28 -51 113 -116
158 -164 225 -240 29 -33 105 -115 169 -183 l115 -122 408 0 407 0 -39 62
c-39 62 -39 63 -17 71 12 5 34 6 49 3 18 -4 27 -1 25 6 -1 6 14 12 35 14 35 3
38 1 54 -42 22 -57 38 -69 19 -13 -20 55 -19 59 8 59 33 0 45 -11 61 -58 18
-49 55 -102 72 -102 10 0 10 9 -1 41 -19 53 -19 56 4 31 10 -12 22 -18 26 -14
5 4 5 1 1 -5 -4 -7 -1 -22 7 -34 11 -15 16 -17 20 -7 4 10 6 10 6 1 1 -10 86
-13 391 -13 l390 0 0 186 c0 211 5 196 -98 299 -28 29 -52 56 -52 60 0 8 13
-1 87 -62 28 -24 54 -43 57 -43 3 0 6 936 6 2080 l0 2080 -380 0 c-289 0 -380
-3 -380 -12 0 -9 -3 -9 -12 0 -9 9 -93 12 -316 12 l-304 0 28 -37 29 -38 -43
36 c-39 34 -48 37 -107 37 -39 0 -62 -4 -59 -10 4 -6 -3 -5 -14 1 -11 6 -35
11 -53 11 l-33 0 29 -30 c16 -16 37 -32 47 -36 10 -3 18 -10 18 -16 0 -7 -4
-7 -12 0 -7 5 -45 26 -84 46 -61 31 -80 36 -132 34 -55 -1 -59 -3 -42 -15 25
-17 93 -47 102 -45 4 1 5 -4 2 -12 -3 -8 4 -16 21 -20 25 -6 40 -17 100 -71
26 -24 25 -23 -14 4 -25 17 -49 31 -54 31 -6 0 -28 15 -51 33 -23 18 -67 48
-98 66 -53 30 -62 32 -140 29 l-83 -3 34 -19 c26 -14 39 -16 52 -8 13 8 29 6
65 -8 59 -22 203 -102 261 -144 23 -17 60 -42 82 -55 52 -32 212 -186 281
-271 29 -36 84 -99 122 -142 39 -42 70 -80 71 -85 0 -12 30 -32 40 -26 4 2 6
1 5 -4 -4 -15 32 -72 50 -77 10 -4 29 -24 41 -46 12 -22 26 -40 30 -40 4 0 30
-35 58 -78 29 -43 61 -86 72 -96 30 -27 27 -90 -3 -67 -11 8 -116 31 -143 31
-18 0 -93 -76 -93 -94 0 -8 -6 -21 -14 -28 -7 -8 -21 -28 -30 -46 -9 -17 -20
-31 -24 -30 -14 3 -62 -22 -62 -32 0 -5 -9 -10 -20 -10 -11 0 -20 -4 -20 -9 0
-5 -29 -17 -65 -26 -78 -22 -158 -16 -230 16 -27 12 -74 28 -105 36 -103 26
-255 61 -285 66 -16 3 8 2 55 0 47 -3 88 -11 92 -17 11 -16 19 -2 28 51 4 26
8 40 9 31 0 -9 6 -20 11 -23 6 -4 10 -3 9 2 -5 27 2 53 12 47 12 -7 9 21 -6
61 l-8 20 16 -20 c14 -17 16 -17 17 -4 0 40 -23 44 -279 44 -135 0 -262 -3
-281 -8 l-35 -7 25 16 c14 9 31 24 38 32 16 20 16 40 0 24 -16 -16 -42 -16
-32 0 4 6 -14 -5 -41 -25 -26 -20 -55 -37 -64 -37 -9 0 -25 -7 -35 -15 -27
-20 -41 -19 -26 3 7 9 -10 -7 -38 -36 -32 -32 -49 -58 -46 -67 8 -20 26 -19
77 4 46 22 150 43 141 30 -3 -5 21 -9 53 -9 64 0 133 -16 133 -30 0 -6 -6 -10
-12 -10 -8 -1 -6 -6 4 -14 16 -12 16 -14 -8 -24 -14 -7 -66 -12 -117 -12 -51
-1 -131 -9 -180 -19 -48 -10 -90 -15 -93 -10 -3 5 -23 9 -45 9 -38 0 -39 -1
-39 -36 0 -21 -4 -33 -10 -29 -5 3 -10 18 -10 32 0 24 -2 25 -37 19 -132 -23
-184 -29 -190 -23 -6 6 52 132 67 147 3 3 11 18 18 33 7 16 25 45 42 65 16 20
42 71 59 112 30 78 34 92 32 124 -1 15 -4 16 -16 6 -26 -21 -27 -5 -2 31 13
19 26 45 30 58 l6 23 -25 -23 c-13 -12 -24 -19 -24 -15 0 13 82 149 115 191
18 22 52 75 76 118 24 42 56 99 71 125 16 26 42 76 60 112 17 36 42 74 54 85
12 11 34 40 49 64 l27 43 -53 -40 c-30 -23 -56 -39 -58 -36 -6 6 53 56 107 91
l44 28 -471 3 c-455 2 -473 2 -511 -18 -50 -25 -67 -26 -20 0 l35 19 -94 1
c-90 0 -96 -2 -123 -27 -15 -15 -28 -32 -28 -39 0 -6 -7 -17 -15 -24 -26 -22
-9 -22 28 0 31 18 35 19 41 4 3 -9 3 -21 -1 -27 -3 -7 7 0 23 14 16 15 44 34
62 43 28 14 24 8 -29 -45 -130 -133 -259 -320 -262 -384 -1 -19 -5 -35 -9 -35
-4 0 -10 -10 -14 -22 -3 -13 -14 -41 -24 -63 -43 -100 -49 -122 -30 -110 5 3
-2 -18 -15 -47 -14 -29 -25 -66 -24 -83 0 -29 0 -29 15 10 8 22 18 49 21 60 3
11 14 32 25 47 10 14 18 28 18 31 0 20 100 210 126 241 19 22 34 43 34 48 0 5
4 14 10 21 5 7 24 32 42 56 37 50 59 64 51 31 -3 -11 -10 -23 -16 -27 -6 -4
-7 -1 -2 7 5 8 4 11 -3 6 -6 -4 -9 -13 -6 -20 3 -7 -6 -26 -19 -42 -13 -16
-30 -40 -36 -53 -32 -59 -92 -144 -87 -121 4 14 -12 -11 -34 -55 -22 -44 -42
-84 -43 -90 -1 -5 -4 -12 -7 -15 -16 -15 -39 -61 -49 -96 -14 -48 -56 -260
-66 -329 -4 -27 -12 -56 -18 -63 -6 -7 -6 -12 -1 -11 24 4 30 -3 26 -36 -4
-35 -16 -45 -26 -22 -3 6 -3 2 0 -10 3 -14 -1 -25 -13 -32 -15 -9 -15 -12 -4
-20 7 -5 23 -7 35 -4 20 4 20 4 4 -10 -10 -8 -18 -21 -18 -30 0 -12 12 -10 59
15 49 25 66 29 99 23 42 -7 92 -41 92 -63 0 -7 -7 -9 -17 -5 -16 6 -16 4 1
-16 15 -16 17 -24 8 -33 -9 -9 -17 -7 -34 9 -25 22 -61 43 -76 43 -5 0 -29
-14 -54 -30 -36 -24 -50 -41 -62 -77 -21 -60 -20 -65 3 -27 25 42 38 48 44 24
3 -12 0 -20 -8 -20 -7 0 -18 -14 -24 -31 -17 -49 -13 -58 9 -21 11 17 24 32
28 32 5 0 26 14 47 30 28 23 41 27 46 18 6 -9 10 -8 15 5 6 16 8 16 38 -1 17
-9 33 -18 34 -19 2 -1 -5 -14 -16 -30 -11 -15 -23 -39 -27 -52 l-7 -24 28 22
c27 21 29 21 35 4 4 -11 -2 -32 -14 -52 -11 -19 -15 -31 -9 -27 34 21 2 -29
-83 -129 -21 -25 -22 -31 -10 -38 8 -4 20 -5 26 -1 6 3 1 -12 -10 -35 -31 -60
-28 -116 8 -152 25 -24 37 -29 81 -29 47 0 52 -2 71 -35 22 -37 48 -50 80 -40
18 6 20 13 15 43 -29 187 -11 280 58 305 16 6 17 4 11 -20 l-7 -28 29 28 c16
15 34 27 40 27 13 0 23 -56 23 -127 0 -35 9 -72 30 -117 28 -64 29 -70 25
-191 -2 -69 0 -125 5 -125 4 0 13 7 20 15 7 8 17 12 23 8 5 -3 7 -2 4 3 -3 6
-1 16 4 24 7 12 10 11 15 -7 4 -13 10 -23 14 -23 7 0 22 47 25 80 3 28 48 165
59 179 9 12 8 13 -4 6 -12 -6 -13 -5 -3 5 11 11 17 10 36 -8 25 -24 37 -28 37
-12 0 17 -62 80 -79 80 -12 0 -26 31 -55 113 -44 130 -46 186 -7 270 12 26 24
61 28 77 3 17 17 43 32 58 25 27 29 28 99 22 71 -5 73 -5 52 12 l-21 17 23 6
c92 20 121 25 179 25 51 0 70 -4 82 -18 15 -17 14 -19 -27 -42 -42 -22 -43
-25 -30 -45 16 -25 55 -45 87 -45 12 0 34 -7 50 -14 l27 -15 0 119 c0 84 4
121 13 127 6 4 84 9 172 9 l160 2 -156 -8 c-86 -4 -161 -10 -168 -14 -7 -5
-11 -51 -10 -144 1 -110 3 -131 11 -104 12 34 32 42 46 17 4 -9 22 -17 39 -18
17 -1 29 -5 27 -8 -2 -3 7 -11 21 -17 18 -8 25 -8 29 1 3 7 5 6 5 -3 1 -11 13
-16 42 -17 23 -1 38 2 33 6 -15 14 -83 33 -94 26 -6 -3 -7 0 -4 9 4 9 1 16 -6
16 -17 0 -70 39 -70 52 0 6 3 8 7 5 3 -4 16 2 28 13 l22 21 6 -28 c4 -21 17
-35 50 -51 85 -43 138 -24 168 61 8 21 19 37 29 37 22 -1 47 -22 52 -45 2 -11
10 -19 16 -17 17 3 15 -13 -3 -28 -18 -15 -21 -45 -3 -34 7 4 8 3 4 -5 -4 -6
-12 -9 -17 -6 -17 11 -30 -5 -19 -25 8 -15 6 -24 -10 -40 -19 -19 -19 -22 -6
-36 17 -17 86 -10 86 8 0 6 10 8 22 5 30 -8 54 7 67 43 9 28 8 32 -13 40 -29
11 -38 23 -30 43 6 17 37 12 55 -9 18 -22 28 -17 26 14 -2 23 1 27 23 24 15
-1 52 13 94 38 37 22 74 40 82 40 8 0 14 5 14 11 0 8 5 8 15 -1 22 -18 18 -50
-21 -195 -19 -71 -37 -140 -41 -152 -3 -14 -1 -23 6 -23 6 0 11 5 11 10 0 6 9
29 19 51 11 22 23 53 26 70 4 17 9 28 12 25 8 -8 -37 -143 -56 -168 -20 -26
-44 -68 -38 -68 13 0 78 114 88 155 6 28 20 65 30 83 20 35 25 62 11 62 -5 0
-13 -12 -20 -27 l-12 -28 6 29 c12 66 30 93 67 100 61 11 83 0 85 -42 2 -26
10 -44 30 -62 47 -43 56 -60 59 -118 5 -79 18 -124 62 -217 117 -244 122 -255
116 -276 -5 -15 -10 -18 -18 -10 -7 7 -29 -3 -73 -34 -64 -46 -102 -66 -91
-49 4 6 -10 9 -34 7 -21 -2 -39 1 -39 6 0 13 -169 21 -220 10 -25 -5 -63 -12
-85 -16 -22 -3 -46 -10 -52 -16 -17 -12 -37 4 -53 44 -8 18 -17 26 -22 21 -17
-17 4 -62 44 -97 43 -36 89 -50 211 -61 37 -3 73 -11 80 -19 7 -7 31 -22 53
-34 65 -36 112 -66 131 -83 10 -9 40 -24 66 -33 53 -18 77 -10 77 26 0 27 15
31 48 12 37 -21 62 -62 62 -101 0 -40 -21 -57 -50 -42 -12 7 -37 10 -55 8 -19
-2 -31 0 -29 4 3 4 -2 8 -10 8 -8 0 -17 -9 -21 -19 -5 -18 -8 -18 -33 -5 -49
25 -85 26 -151 4 -42 -14 -67 -18 -75 -11 -6 5 -33 15 -60 22 -55 14 -149 2
-249 -32 -34 -11 -79 -18 -110 -17 -37 1 -65 -4 -97 -20 -81 -39 -110 -61
-110 -82 0 -11 2 -20 5 -20 10 0 69 32 97 53 19 14 52 22 125 28 54 4 130 11
168 15 50 4 82 2 113 -9 28 -10 87 -15 169 -16 87 -2 130 -6 135 -14 4 -7 3
-13 -2 -15 -6 -2 -10 -12 -10 -22 0 -10 -3 -20 -7 -23 -5 -2 -1 -2 7 1 8 2 22
6 30 9 25 7 42 -86 26 -140 -8 -29 -9 -54 -3 -81 7 -27 6 -45 -1 -57 -13 -20
-6 -67 12 -89 10 -12 13 -74 7 -137 -1 -17 -31 -17 -31 -1 0 9 -3 9 -12 0 -17
-17 -28 -15 -28 6 0 9 -4 23 -9 31 -13 21 -43 -53 -34 -87 4 -18 3 -23 -6 -18
-7 5 -24 -5 -40 -23 -16 -17 -35 -31 -43 -31 -8 0 -19 -5 -26 -12 -14 -14 -42
6 -42 32 0 30 -39 112 -50 105 -5 -3 -10 -20 -10 -36 0 -17 -5 -40 -11 -52
-16 -32 -61 -77 -75 -77 -7 0 -15 -6 -17 -12 -4 -10 -8 -10 -15 1 -13 18 -62
6 -62 -14 0 -18 -17 -19 -53 -2 -20 9 -27 19 -27 40 0 16 -4 26 -10 22 -6 -4
-11 6 -11 22 -1 20 -3 22 -6 9 -4 -15 -9 -11 -24 20 -11 21 -17 30 -14 19 11
-36 18 -105 11 -105 -4 0 -13 15 -21 33 -8 18 -14 25 -15 15 0 -35 -38 -20
-51 19 l-12 36 -17 -33 c-12 -23 -19 -29 -23 -19 -4 11 -6 10 -6 -3 -1 -12
-16 -1 -52 35 -27 28 -54 58 -59 66 -5 9 -19 17 -32 18 -13 1 -32 4 -43 6 -11
3 -22 6 -24 6 -2 1 2 8 9 16 7 8 8 15 2 15 -5 0 -15 -7 -22 -15 -14 -17 -46
-20 -55 -5 -4 6 -11 8 -16 4 -5 -3 -8 0 -7 8 2 9 -9 13 -37 13 -29 0 -53 9
-87 33 -26 18 -55 36 -65 40 -35 14 -113 64 -113 72 0 5 -10 12 -22 16 -12 3
-28 12 -35 18 -28 25 -40 34 -62 45 -12 7 -26 24 -32 38 -6 15 -15 23 -23 20
-8 -3 -17 1 -20 9 -3 8 -17 19 -31 24 -14 5 -34 24 -45 42 -12 20 -30 35 -46
38 -28 5 -77 74 -69 97 2 6 -3 17 -12 25 -17 14 -53 91 -53 114 0 9 -11 39
-25 67 -13 29 -38 87 -55 130 -38 91 -44 93 -146 46 -61 -28 -71 -30 -106 -20
-21 7 -38 16 -38 21 0 5 -6 7 -14 4 -24 -9 -133 132 -177 228 -33 72 -42 105
-49 179 -5 50 -11 93 -13 95 -2 3 -8 -15 -12 -38 -7 -39 -8 -41 -15 -18 -7 21
-8 22 -10 5 -7 -87 -7 -204 1 -216 7 -12 9 -12 10 1 2 29 10 75 15 79 3 3 4
-8 4 -25 0 -59 9 -270 14 -304 3 -19 8 -55 11 -80 4 -25 13 -55 21 -68 14 -22
14 -24 -4 -28 -10 -3 -24 -22 -31 -42 -7 -20 -32 -56 -54 -79 -23 -24 -37 -43
-31 -43 13 0 54 44 88 95 35 53 33 37 -4 -28 -16 -28 -53 -75 -82 -103 -49
-48 -59 -53 -130 -67 -106 -21 -145 -10 -53 15 61 17 82 29 151 90 10 9 38 43
61 76 l43 59 -4 84 c-3 46 -8 104 -13 128 l-8 44 -27 -39 c-15 -21 -30 -51
-33 -65 -8 -31 -93 -122 -150 -161 -43 -30 -105 -47 -105 -30 0 5 12 12 28 15
27 5 88 46 125 84 39 38 97 118 97 132 0 12 -3 12 -12 3 -7 -7 -16 -12 -21
-12 -5 0 12 24 37 54 45 52 58 74 35 60 -9 -5 -10 1 -5 21 4 15 2 61 -5 101
-10 65 -10 77 5 99 9 14 14 25 11 25 -2 0 -15 -17 -28 -37 -36 -56 -87 -103
-136 -124 -55 -24 -66 -17 -14 9 21 11 60 43 86 70 40 40 49 57 53 93 2 24 1
38 -2 32 -3 -7 -10 -13 -15 -13 -6 0 -7 5 -3 11 11 19 41 149 34 149 -4 0 -14
-7 -21 -17 -15 -17 -70 -43 -91 -43 -7 0 9 13 37 28 55 30 79 67 79 124 0 22
4 32 9 25 4 -7 6 22 3 63 -3 41 -6 83 -7 93 0 9 -4 15 -8 12 -11 -6 -22 106
-15 144 6 27 4 29 -33 35 -40 7 -103 49 -92 61 4 3 24 -3 45 -14 44 -24 84
-27 84 -8 0 7 -14 53 -30 103 -43 125 -50 160 -61 314 -13 186 1 331 46 467
19 57 37 119 41 138 3 19 19 54 34 78 61 96 64 114 5 31 -19 -27 -35 -45 -35
-40 0 5 15 30 34 56 19 26 42 63 52 81 9 19 29 48 43 66 96 115 94 113 68 113
-46 0 -132 -113 -212 -279 -48 -99 -55 -119 -84 -218 -12 -40 -25 -73 -30 -73
-21 0 46 196 108 321 54 106 70 131 135 205 l39 44 -542 0 -541 0 2 -1702z
m3193 1662 c3 -6 -1 -7 -9 -4 -18 7 -21 14 -7 14 6 0 13 -4 16 -10z m-1561
-62 c-4 -13 -17 -36 -30 -53 -21 -29 -94 -162 -94 -173 0 -3 22 18 49 46 78
82 77 65 -2 -23 -62 -70 -85 -108 -106 -174 -14 -43 -13 -75 0 -41 6 14 17 29
25 33 8 5 27 25 42 46 15 21 45 53 66 72 l39 34 -34 -54 c-19 -29 -57 -76 -85
-105 -28 -28 -53 -55 -55 -61 -2 -5 -22 -26 -43 -45 -24 -22 -35 -28 -28 -15
6 11 22 30 36 43 15 12 24 27 21 32 -14 23 -13 54 2 83 15 30 13 29 -26 -10
-22 -23 -41 -46 -41 -51 0 -5 -7 -16 -17 -23 -9 -8 -14 -9 -12 -4 3 6 10 24
18 40 7 17 23 52 36 78 14 28 18 43 9 36 -30 -25 -4 34 29 66 21 19 21 19 13
0 -4 -11 -10 -27 -13 -35 -4 -8 10 3 30 25 20 22 40 51 43 65 4 14 15 36 26
49 10 13 18 30 18 38 0 12 76 103 87 103 2 0 1 -10 -3 -22z m179 -75 c-8 -21
-33 -64 -54 -97 -21 -32 -39 -60 -39 -62 0 -5 -69 -106 -77 -114 -3 -3 -2 6 2
20 4 14 11 27 15 30 8 5 70 134 70 145 0 11 82 115 91 115 4 0 1 -17 -8 -37z
m527 33 c0 -2 -8 -10 -17 -17 -16 -13 -17 -12 -4 4 13 16 21 21 21 13z m-656
-163 c-20 -43 -42 -96 -50 -118 -8 -22 -24 -55 -34 -73 -23 -39 -25 -46 -7
-36 6 4 9 4 5 0 -3 -4 -10 -8 -15 -9 -4 -1 -31 -50 -60 -109 -29 -60 -55 -108
-58 -108 -3 0 1 13 10 30 19 38 19 46 -2 29 -15 -12 -16 -12 -8 1 5 8 19 29
31 45 24 33 40 75 28 75 -4 0 -29 -18 -55 -40 -26 -22 -53 -40 -60 -40 -6 0 2
10 19 23 17 12 50 37 72 55 28 24 38 28 34 15 -5 -14 -4 -15 5 -7 7 7 13 25
14 40 1 16 19 54 39 84 20 31 40 72 46 92 9 33 67 128 77 128 3 0 -12 -35 -31
-77z m291 37 c-9 -16 -18 -30 -21 -30 -2 0 2 14 11 30 9 17 18 30 21 30 2 0
-2 -13 -11 -30z m-34 -17 c-12 -20 -14 -14 -5 12 4 9 9 14 11 11 3 -2 0 -13
-6 -23z m-653 -38 c-16 -30 -34 -57 -39 -61 -5 -3 -7 -9 -4 -14 3 -5 -14 -34
-37 -64 -24 -29 -54 -72 -67 -95 -34 -56 -37 -45 -5 14 18 32 23 49 16 54 -8
4 -2 21 17 49 26 40 138 172 146 172 2 0 -10 -25 -27 -55z m193 32 c-10 -9
-11 -8 -5 6 3 10 9 15 12 12 3 -3 0 -11 -7 -18z m691 -9 c-8 -8 -9 -4 -5 13 4
13 8 18 11 10 2 -7 -1 -18 -6 -23z m-752 14 c0 -5 -9 -27 -20 -50 -12 -24 -20
-48 -19 -55 3 -27 -2 -46 -18 -64 -10 -10 -15 -14 -11 -8 13 20 29 70 20 60
-26 -26 -77 -140 -129 -283 -49 -136 -101 -242 -119 -242 -3 0 7 24 24 53 49
86 132 312 132 358 0 11 10 39 21 62 12 23 22 44 21 47 0 3 4 4 9 3 5 -2 8 0
7 5 0 4 7 23 16 42 l17 35 -5 -32 c-8 -50 1 -40 20 22 10 30 21 55 26 55 4 0
8 -4 8 -8z m766 -43 c-9 -19 -15 -27 -16 -18 0 18 24 72 28 60 1 -4 -4 -23
-12 -42z m-97 -22 c-6 -25 -20 -53 -30 -63 -23 -21 -23 -17 -3 53 12 42 19 52
26 42 7 -10 8 -7 4 10 -3 16 -2 21 5 14 7 -7 6 -25 -2 -56z m54 43 c-5 -19
-23 -39 -23 -25 0 9 20 45 24 45 2 0 2 -9 -1 -20z m-243 6 c0 -2 -8 -10 -17
-17 -16 -13 -17 -12 -4 4 13 16 21 21 21 13z m20 -41 c-15 -39 -43 -176 -42
-202 1 -12 -3 -25 -8 -28 -6 -3 -10 2 -11 12 0 14 -2 15 -6 3 -8 -21 -26 -31
-34 -19 -3 6 -28 -29 -54 -78 -58 -106 -105 -177 -113 -169 -3 3 11 30 30 58
40 59 93 167 85 174 -5 5 -43 -39 -50 -59 -2 -7 -7 -9 -11 -6 -7 7 21 87 36
104 6 6 6 2 2 -10 l-7 -20 23 20 c12 11 29 34 36 52 8 17 18 35 24 38 6 4 8
11 5 16 -4 5 -3 19 1 32 7 21 7 21 15 2 6 -16 8 -17 8 -3 1 9 6 20 12 24 8 4
9 -4 5 -27 -6 -32 -5 -32 5 -9 18 37 21 52 22 83 0 16 3 24 7 17 5 -7 9 -3 13
11 4 13 9 21 12 17 3 -3 1 -18 -5 -33z m225 -25 c-23 -44 -30 -31 -9 16 9 22
18 34 21 27 2 -6 -3 -26 -12 -43z m-211 -21 c-9 -30 -19 -48 -21 -42 -5 13 27
106 33 100 2 -2 -3 -28 -12 -58z m-208 -42 c-3 -13 -18 -40 -33 -59 -16 -20
-34 -44 -40 -54 -11 -17 -13 -16 -10 11 2 28 76 140 85 130 2 -2 2 -15 -2 -28z
m5 -60 c-22 -47 -44 -88 -50 -91 -21 -13 -19 12 4 49 13 22 36 62 50 88 42 78
39 48 -4 -46z m204 -2 c-19 -36 -35 -73 -35 -81 0 -8 -4 -14 -8 -14 -12 0 7
122 20 135 8 7 9 5 5 -7 -4 -10 -2 -18 3 -18 5 0 14 19 21 42 8 33 13 39 20
26 6 -11 -2 -36 -26 -83z m1590 -163 c26 -32 26 -34 5 -17 -14 11 -31 29 -39
40 -8 11 -28 32 -44 47 -16 15 -40 44 -54 65 -28 41 78 -67 132 -135z m-1995
139 c0 -7 -49 -61 -55 -61 -4 0 11 45 20 60 5 8 35 9 35 1z m61 -137 c-37 -64
-39 -66 -37 -34 2 19 10 50 20 68 18 35 29 43 20 15 -4 -13 0 -11 12 5 33 44
24 14 -15 -54z m345 41 c-36 -47 -16 -45 24 3 l31 37 -38 -77 c-20 -42 -40
-75 -43 -73 -3 2 -10 -8 -17 -21 -8 -17 -8 -22 0 -17 6 3 1 -10 -12 -30 -12
-20 -31 -60 -41 -89 -17 -48 -19 -50 -20 -21 0 17 5 35 10 38 6 4 8 10 5 15
-3 5 0 29 6 52 7 24 13 48 15 54 1 6 5 22 8 35 4 13 -5 4 -18 -21 -14 -25 -25
-41 -26 -37 0 15 40 86 62 110 13 13 32 35 42 50 10 15 23 27 29 27 5 0 -3
-16 -17 -35z m-753 10 c-3 -9 -8 -14 -10 -11 -3 3 -2 9 2 15 9 16 15 13 8 -4z
m152 -113 c-33 -32 -74 -76 -91 -97 -48 -61 -48 -38 0 25 36 47 130 130 146
130 3 0 -22 -26 -55 -58z m-250 -163 l-14 -44 6 40 c6 42 12 59 19 52 2 -2 -3
-23 -11 -48z m-63 -284 c-3 -22 -8 -33 -13 -28 -10 10 0 75 10 68 4 -2 5 -20
3 -40z m98 -21 c0 -9 -11 -14 -30 -14 -36 0 -39 13 -7 27 25 12 37 8 37 -13z
m-90 -84 c0 -5 -5 -10 -11 -10 -5 0 -7 5 -4 10 3 6 8 10 11 10 2 0 4 -4 4 -10z
m289 -77 c0 -33 -1 -35 -9 -15 -8 20 -4 52 6 52 2 0 4 -17 3 -37z m1368 21
c-3 -3 -12 -4 -19 -1 -8 3 -5 6 6 6 11 1 17 -2 13 -5z m66 -11 c-7 -2 -21 -2
-30 0 -10 3 -4 5 12 5 17 0 24 -2 18 -5z m-121 -15 c43 -13 58 -32 40 -50 -7
-7 -53 -12 -105 -14 -52 -1 -109 -5 -128 -9 -25 -4 -30 -3 -19 4 12 9 11 11
-7 11 -13 0 -23 5 -23 10 0 6 5 10 11 10 5 0 8 4 4 9 -3 6 3 15 12 21 14 9 8
10 -27 6 -33 -4 -38 -3 -20 3 38 13 217 13 262 -1z m181 5 c-7 -2 -21 -2 -30
0 -10 3 -4 5 12 5 17 0 24 -2 18 -5z m50 -10 c-7 -2 -19 -2 -25 0 -7 3 -2 5
12 5 14 0 19 -2 13 -5z m-653 -7 c0 -3 -4 -8 -10 -11 -5 -3 -10 -1 -10 4 0 6
5 11 10 11 6 0 10 -2 10 -4z m697 -2 c-3 -3 -12 -4 -19 -1 -8 3 -5 6 6 6 11 1
17 -2 13 -5z m736 -51 c-7 -2 -21 -2 -30 0 -10 3 -4 5 12 5 17 0 24 -2 18 -5z
m-2326 -25 c-3 -8 -6 -5 -6 6 -1 11 2 17 5 13 3 -3 4 -12 1 -19z m2218 7 c-63
-18 -91 -18 -45 0 19 7 49 14 65 14 24 0 19 -3 -20 -14z m-1986 -6 c21 -1 18
-3 -15 -12 -23 -7 -49 -19 -59 -27 -16 -14 -17 -13 -11 8 5 14 3 22 -4 22 -6
0 -8 5 -4 11 4 6 19 9 36 5 17 -3 42 -6 57 -7z m47 -44 c-22 -19 -42 -32 -45
-29 -3 3 5 14 19 24 14 11 20 20 14 20 -6 0 -17 -6 -23 -14 -12 -15 -64 -19
-55 -5 3 5 13 9 23 9 9 0 21 4 27 9 9 9 38 18 64 19 8 1 -3 -14 -24 -33z
m2148 -68 c13 13 5 -34 -9 -54 -17 -25 -83 -47 -109 -37 -13 5 -12 9 9 26 14
11 32 33 40 49 13 24 19 27 39 19 13 -5 27 -6 30 -3z m-209 -67 c11 -5 15 -9
8 -9 -7 -1 -10 -7 -7 -15 6 -15 -13 -32 -24 -21 -3 3 -1 10 7 14 10 6 9 12 -4
25 -18 17 -11 19 20 6z m59 -89 c3 -5 33 -12 66 -16 33 -4 60 -10 60 -14 0 -8
-58 -28 -102 -34 -16 -2 -26 0 -25 7 1 6 -10 12 -25 14 -18 2 -28 9 -28 20 0
13 -2 14 -9 4 -7 -11 -9 -11 -14 1 -3 8 -3 18 0 21 10 9 71 7 77 -3z m-52 -63
c13 -7 28 -19 34 -27 6 -8 36 -15 70 -18 65 -4 117 -18 153 -42 23 -14 23 -14
17 7 -6 18 -3 22 13 22 21 0 21 0 24 -90 1 -30 6 -58 11 -61 11 -8 -1 -29 -17
-29 -8 0 -11 -17 -9 -55 4 -51 2 -55 -22 -66 -14 -7 -25 -17 -24 -23 5 -25
-39 -96 -72 -115 -30 -18 -32 -21 -12 -21 23 0 30 -14 12 -25 -17 -10 -49 14
-56 43 -4 15 -11 33 -17 39 -5 7 -6 32 -3 58 6 39 4 49 -19 79 -14 19 -37 67
-50 107 -36 108 -71 190 -78 182 -4 -3 -7 3 -7 14 0 35 16 41 52 21z m564 -60
c-6 -48 -14 -69 -34 -90 -14 -16 -30 -28 -35 -28 -4 0 -1 7 8 16 31 31 43 59
50 112 10 74 19 65 11 -10z m-220 15 c-11 -11 -17 4 -9 23 7 18 8 18 11 1 2
-10 1 -21 -2 -24z m32 -49 c-4 -3 -12 5 -18 18 -12 22 -12 22 6 6 10 -10 15
-20 12 -24z m-2642 -31 c-5 -23 -4 -25 4 -10 6 9 15 15 21 12 12 -8 12 -65 0
-65 -5 0 -11 -9 -14 -20 -5 -18 -11 -19 -54 -13 -26 3 -51 11 -55 16 -3 6 1
25 9 43 13 27 49 51 92 63 2 1 0 -11 -3 -26z m74 -163 c0 -5 -2 -10 -4 -10 -3
0 -8 5 -11 10 -3 6 -1 10 4 10 6 0 11 -4 11 -10z m326 -120 c9 0 12 -5 9 -10
-4 -6 -11 -7 -17 -4 -6 4 -9 1 -6 -7 6 -17 -9 -49 -22 -49 -6 0 -10 18 -10 41
0 33 3 40 16 35 9 -3 22 -6 30 -6z m-590 -340 c4 -50 2 -46 -26 50 -16 58 -29
116 -29 130 2 41 50 -119 55 -180z m2652 152 c-10 -12 -10 -16 0 -19 13 -5 7
-23 -9 -23 -6 0 -7 5 -4 10 3 6 0 13 -9 16 -8 3 -17 12 -20 19 -3 9 0 12 10 8
7 -3 14 0 14 6 0 6 7 8 15 5 13 -5 13 -9 3 -22z m-2642 -297 c3 -14 3 -33 -1
-42 -7 -17 -8 -16 -15 2 -12 28 -12 65 0 65 5 0 12 -11 16 -25z m2594 -51 c-8
-27 -8 -26 -9 16 0 32 2 40 9 29 5 -9 6 -28 0 -45z m-129 -120 c22 -20 13 -54
-14 -54 -16 0 -18 3 -10 11 8 8 8 20 3 35 -11 28 -4 31 21 8z m106 -6 c-3 -8
-6 -5 -6 6 -1 11 2 17 5 13 3 -3 4 -12 1 -19z m-2570 -269 c2 -27 -13 -23 -36
10 -28 39 -26 45 7 26 15 -9 29 -25 29 -36z m213 -155 c0 -6 -6 -26 -14 -44
-12 -31 -14 -32 -24 -14 -16 31 -52 137 -52 154 1 17 90 -78 90 -96z m2200
-26 c0 -5 -4 -8 -10 -8 -5 0 -10 10 -10 23 0 18 2 19 10 7 5 -8 10 -18 10 -22z
m250 -259 c19 -16 40 -29 47 -29 6 0 29 -16 50 -35 21 -19 88 -69 148 -110
152 -105 174 -121 219 -158 82 -67 91 -75 85 -81 -7 -7 -236 141 -279 179 -14
12 -37 29 -51 36 -14 8 -46 28 -70 46 -24 17 -75 53 -113 80 -37 26 -88 65
-113 86 -24 20 -48 37 -52 37 -11 0 -71 61 -71 72 0 10 151 -83 200 -123z
m-73 -31 c3 -7 -8 -2 -25 10 -17 13 -35 28 -39 34 -3 7 8 2 25 -10 17 -13 35
-28 39 -34z m-1532 -16 c-3 -3 -11 0 -18 7 -9 10 -8 11 6 5 10 -3 15 -9 12
-12z m1591 -24 l29 -31 -37 28 c-39 28 -45 35 -30 35 5 0 21 -14 38 -32z m818
-887 c10 -18 17 -34 15 -36 -8 -8 -119 106 -119 121 0 22 78 -42 104 -85z"/>
<path d="M1214 4179 c-19 -22 -19 -22 4 -8 12 8 22 17 22 21 0 12 -6 9 -26
-13z"/>
<path d="M1175 4130 c-10 -11 -13 -20 -7 -20 6 0 16 9 22 20 6 11 9 20 7 20
-2 0 -12 -9 -22 -20z"/>
<path d="M1827 4103 c-4 -3 -7 -18 -7 -31 0 -31 7 -26 14 11 5 28 4 31 -7 20z"/>
<path d="M1570 3948 c-12 -22 -12 -22 6 -6 10 10 15 20 12 24 -4 3 -12 -5 -18
-18z"/>
<path d="M1276 4569 c-16 -17 -40 -38 -53 -46 -12 -8 -23 -22 -23 -29 0 -8 -4
-14 -10 -14 -5 0 -10 -4 -10 -9 0 -18 31 -4 65 29 19 19 35 39 35 46 0 7 12
22 28 33 17 13 21 20 12 21 -8 0 -28 -14 -44 -31z"/>
<path d="M2613 4541 c-1 -11 17 -26 50 -44 70 -36 77 -34 26 8 -59 50 -75 57
-76 36z"/>
<path d="M1068 4473 c-24 -26 -73 -99 -52 -78 18 18 85 105 82 105 -3 0 -16
-12 -30 -27z"/>
<path d="M960 4229 c0 -5 5 -7 10 -4 6 3 10 8 10 11 0 2 -4 4 -10 4 -5 0 -10
-5 -10 -11z"/>
<path d="M895 3982 c-36 -133 -46 -317 -21 -422 32 -138 38 -160 42 -160 3 0
2 21 0 48 -23 210 -27 269 -21 357 3 55 13 140 21 189 8 48 13 90 12 92 -2 2
-17 -45 -33 -104z"/>
<path d="M1012 3700 c0 -14 2 -19 5 -12 2 6 2 18 0 25 -3 6 -5 1 -5 -13z"/>
<path d="M3626 3589 c21 -25 41 -44 44 -42 2 2 -16 23 -40 46 l-44 42 40 -46z"/>
<path d="M931 3554 c0 -21 4 -59 9 -84 6 -34 7 -25 3 35 -6 84 -14 115 -12 49z"/>
<path d="M2279 3523 l-24 -28 28 24 c25 23 32 31 24 31 -2 0 -14 -12 -28 -27z"/>
<path d="M2960 3270 c0 -5 5 -10 11 -10 5 0 7 5 4 10 -3 6 -8 10 -11 10 -2 0
-4 -4 -4 -10z"/>
<path d="M2998 3253 c7 -3 16 -2 19 1 4 3 -2 6 -13 5 -11 0 -14 -3 -6 -6z"/>
<path d="M2088 3143 c7 -3 16 -2 19 1 4 3 -2 6 -13 5 -11 0 -14 -3 -6 -6z"/>
<path d="M2660 2985 c-14 -16 -3 -20 19 -6 8 5 9 11 3 15 -5 3 -15 -1 -22 -9z"/>
<path d="M2560 2979 c0 -11 20 -15 52 -11 41 6 34 17 -12 18 -22 0 -40 -3 -40
-7z"/>
<path d="M3059 2958 c-5 -33 -2 -52 9 -56 11 -3 32 35 32 58 0 11 -40 9 -41
-2z"/>
<path d="M2271 2914 c0 -11 3 -14 6 -6 3 7 2 16 -1 19 -3 4 -6 -2 -5 -13z"/>
<path d="M981 2714 c0 -11 3 -14 6 -6 3 7 2 16 -1 19 -3 4 -6 -2 -5 -13z"/>
<path d="M971 2674 c0 -11 3 -14 6 -6 3 7 2 16 -1 19 -3 4 -6 -2 -5 -13z"/>
<path d="M2979 2647 c-14 -12 -34 -33 -44 -47 -11 -14 0 -7 25 15 25 22 47 41
49 43 2 1 2 4 0 7 -3 2 -16 -6 -30 -18z"/>
<path d="M962 2630 c0 -14 2 -19 5 -12 2 6 2 18 0 25 -3 6 -5 1 -5 -13z"/>
<path d="M2871 2540 c-13 -11 -19 -20 -14 -20 6 0 18 9 28 20 23 25 17 25 -14
0z"/>
<path d="M2790 2500 c-8 -5 -10 -10 -5 -10 6 0 17 5 25 10 8 5 11 10 5 10 -5
0 -17 -5 -25 -10z"/>
<path d="M1252 2411 c-73 -47 -80 -143 -13 -188 19 -13 46 -23 61 -23 31 0 84
46 76 67 -3 7 -2 13 3 13 5 0 12 12 16 28 3 15 14 35 22 45 15 15 15 17 0 17
-8 0 -24 12 -34 26 -26 35 -86 42 -131 15z m78 -38 c-8 -2 -34 -11 -57 -19
-39 -14 -43 -19 -43 -49 0 -24 7 -39 26 -54 32 -25 56 -26 92 -5 l27 16 -24
-21 c-33 -30 -76 -27 -112 8 -43 44 -38 77 17 115 24 16 43 21 62 18 15 -3 21
-7 12 -9z"/>
<path d="M1595 2230 c3 -5 8 -10 11 -10 2 0 4 5 4 10 0 6 -5 10 -11 10 -5 0
-7 -4 -4 -10z"/>
<path d="M1681 2184 c0 -11 3 -14 6 -6 3 7 2 16 -1 19 -3 4 -6 -2 -5 -13z"/>
<path d="M2210 1926 c0 -9 5 -16 10 -16 6 0 10 4 10 9 0 6 -4 13 -10 16 -5 3
-10 -1 -10 -9z"/>
<path d="M869 1773 c-13 -16 -12 -17 4 -4 9 7 17 15 17 17 0 8 -8 3 -21 -13z"/>
<path d="M3225 1700 c-49 -4 -103 -12 -118 -18 -31 -13 -97 -63 -97 -74 0 -4
17 -8 38 -10 34 -3 37 -6 40 -35 2 -21 9 -33 18 -33 8 0 13 -4 10 -9 -3 -5 7
-11 23 -14 21 -4 36 -18 52 -46 26 -47 38 -48 14 -1 -9 17 -14 37 -12 43 2 7
14 -8 26 -33 11 -25 18 -36 15 -25 -4 11 -9 31 -12 43 l-5 24 51 -26 c63 -32
77 -33 62 -5 -19 35 -38 109 -30 114 4 3 24 -2 44 -10 48 -20 51 -20 70 18 15
30 15 33 -5 50 -12 9 -35 17 -53 17 -44 0 -64 14 -40 29 11 6 15 10 9 9 -5 -1
-50 -4 -100 -8z"/>
<path d="M786 1540 c-30 -9 -60 -31 -182 -133 l-72 -59 2 -75 c1 -66 0 -71
-11 -46 -7 15 -12 36 -13 46 0 21 -20 13 -20 -8 0 -18 85 -144 110 -165 57
-46 125 -108 241 -220 71 -69 148 -141 170 -160 46 -40 121 -110 226 -211 40
-38 103 -97 140 -132 58 -54 64 -57 46 -27 -11 19 -25 34 -32 33 -6 -2 -11 2
-11 7 0 6 -20 32 -44 58 -24 26 -48 57 -54 69 -7 11 -31 36 -54 55 -23 18 -38
27 -33 19 5 -9 -2 -7 -18 5 -26 18 -39 42 -15 28 7 -5 8 -3 4 5 -5 7 -10 10
-13 7 -3 -2 -19 10 -36 27 -17 18 -45 44 -63 58 -30 24 -101 85 -197 169 -72
63 -171 168 -147 155 8 -5 4 4 -9 18 -13 15 -27 24 -31 22 -3 -2 -21 9 -38 25
-47 43 -44 79 11 124 23 19 65 43 92 53 31 12 51 26 55 38 3 11 13 31 22 45
10 14 20 51 24 83 6 53 5 57 -17 66 -24 10 -24 10 -1 10 12 1 22 6 22 11 0 12
-14 12 -54 0z"/>
<path d="M955 1530 c-3 -5 -1 -10 4 -10 6 0 11 5 11 10 0 6 -2 10 -4 10 -3 0
-8 -4 -11 -10z"/>
<path d="M1136 1320 c3 -14 11 -32 16 -40 6 -10 7 -7 2 10 -3 14 -11 32 -16
40 -6 10 -7 7 -2 -10z"/>
<path d="M1287 1163 c-5 -7 -6 -17 -3 -21 7 -12 -5 -26 -45 -50 -20 -12 -43
-30 -50 -38 -8 -9 9 -2 38 15 63 39 75 53 71 83 -2 16 -6 19 -11 11z"/>
<path d="M70 1127 c0 -12 114 -128 234 -240 23 -21 84 -79 138 -130 53 -50
128 -121 167 -157 38 -35 68 -66 66 -69 -8 -7 -88 59 -179 146 -154 148 -325
293 -411 348 -16 10 -38 29 -48 42 -29 36 -37 28 -37 -37 l0 -60 34 16 c31 15
35 15 60 -1 25 -17 62 -66 38 -51 -19 12 0 -68 22 -93 15 -17 5 -13 -34 14
-30 21 -66 46 -79 57 -13 10 -28 18 -32 18 -5 0 -9 -42 -9 -94 l0 -93 25 5
c15 2 25 0 25 -7 0 -6 -11 -17 -25 -23 l-25 -11 0 -159 c0 -135 2 -158 15
-158 9 0 59 22 113 50 54 27 104 50 112 50 8 1 32 7 52 14 33 12 39 11 53 -4
21 -23 19 -30 -7 -30 -13 0 -30 -6 -40 -13 -14 -11 -15 -18 -5 -50 14 -42 10
-41 62 -23 48 17 78 10 49 -11 -10 -8 -50 -31 -89 -50 -38 -20 -113 -61 -165
-91 -52 -30 -107 -62 -122 -71 -26 -15 -28 -20 -28 -88 l0 -73 35 0 c20 0 50
7 67 16 29 15 32 15 43 0 11 -15 55 -16 449 -14 409 3 436 4 419 20 -10 9 -42
38 -72 65 -29 26 -74 68 -100 93 -25 25 -75 72 -111 105 -36 33 -72 69 -80 80
-8 11 -46 49 -84 84 -63 57 -124 131 -110 131 15 0 264 -232 516 -482 l98 -98
68 0 67 1 -28 22 c-66 52 -243 236 -275 287 -54 83 -149 190 -315 350 -82 79
-144 146 -137 148 6 2 22 -5 34 -17 12 -12 26 -21 30 -21 13 0 -96 118 -120
128 -12 6 -41 36 -64 66 -24 31 -47 56 -52 56 -5 0 -24 11 -41 24 -18 14 -44
29 -60 35 -17 7 -27 18 -27 31 0 11 -7 23 -15 27 -21 7 -32 -4 -17 -19 7 -7
12 -19 12 -27 0 -10 -7 -8 -25 9 -13 12 -22 27 -19 31 3 5 0 9 -5 9 -6 0 -11
-6 -11 -13z m250 -598 c0 -5 -7 -9 -15 -9 -9 0 -12 6 -9 15 6 15 24 11 24 -6z
m60 -119 c0 -5 -4 -10 -10 -10 -5 0 -10 5 -10 10 0 6 5 10 10 10 6 0 10 -4 10
-10z"/>
<path d="M441 1108 c6 -15 17 -26 23 -25 6 1 10 -2 10 -8 -1 -5 11 -20 27 -33
58 -47 15 16 -50 73 l-23 20 13 -27z"/>
<path d="M1739 957 c14 -18 51 -42 51 -33 0 3 -15 15 -32 27 -24 17 -29 18
-19 6z"/>
<path d="M1835 870 c10 -11 20 -20 23 -20 3 0 -3 9 -13 20 -10 11 -20 20 -23
20 -3 0 3 -9 13 -20z"/>
<path d="M1910 805 c29 -35 60 -62 60 -53 0 2 -21 24 -47 48 l-47 45 34 -40z"/>
<path d="M2280 835 c0 -2 10 -10 23 -16 20 -11 21 -11 8 4 -13 16 -31 23 -31
12z"/>
<path d="M1345 460 c10 -11 20 -20 23 -20 3 0 -3 9 -13 20 -10 11 -20 20 -23
20 -3 0 3 -9 13 -20z"/>
<path d="M217 442 c-11 -2 -16 -9 -13 -18 3 -8 9 -21 12 -29 4 -9 1 -15 -7
-15 -9 -1 -8 -4 4 -11 9 -5 17 -17 17 -25 0 -18 20 -14 33 7 14 22 -23 96 -46
91z m23 -47 c0 -5 -5 -3 -10 5 -5 8 -10 20 -10 25 0 6 5 3 10 -5 5 -8 10 -19
10 -25z m8 -40 c-3 -3 -9 2 -12 12 -6 14 -5 15 5 6 7 -7 10 -15 7 -18z"/>
<path d="M173 385 c0 -8 4 -12 9 -9 5 3 6 10 3 15 -9 13 -12 11 -12 -6z"/>
<path d="M110 381 c0 -5 6 -14 14 -20 12 -10 13 -8 9 8 -5 21 -23 30 -23 12z"/>
<path d="M1139 362 c11 -16 28 -35 38 -43 10 -8 3 5 -16 29 -37 47 -53 58 -22
14z"/>
<path d="M41 356 c-8 -10 -9 -16 -1 -21 5 -3 10 1 10 10 0 24 24 12 28 -13 2
-12 10 -22 18 -22 13 0 12 5 -3 30 -19 33 -34 38 -52 16z"/>
<path d="M1070 342 c12 -18 25 -31 28 -27 3 3 -7 18 -23 33 l-28 27 23 -33z"/>
<path d="M1106 350 c4 -14 8 -32 8 -41 0 -10 6 -15 14 -12 7 3 12 1 10 -4 -2
-6 53 -73 122 -151 111 -125 129 -141 158 -141 17 -1 32 3 32 8 0 11 -72 67
-82 64 -4 -2 -5 3 -2 11 5 14 -41 74 -129 169 -45 48 -56 49 -18 2 9 -11 -9 2
-39 29 -30 26 -61 58 -68 70 -12 20 -13 20 -6 -4z"/>
<path d="M1274 348 c-4 -7 -3 -10 1 -5 9 8 75 -50 75 -67 0 -5 -10 0 -23 12
-35 33 -45 26 -12 -8 15 -16 33 -26 39 -23 6 3 8 3 4 -2 -10 -10 35 -66 137
-171 l82 -85 78 3 78 3 -67 68 c-37 37 -71 67 -76 67 -4 0 -24 16 -43 36 -34
35 -35 36 -42 14 -5 -15 -1 -29 12 -43 55 -64 56 -82 2 -22 -78 84 -143 151
-197 199 -30 27 -42 33 -48 24z m237 -255 c13 -16 12 -17 -3 -4 -10 7 -18 15
-18 17 0 8 8 3 21 -13z"/>
<path d="M173 343 c13 -3 17 -11 14 -24 -6 -20 0 -23 21 -11 20 13 4 38 -26
39 -16 0 -19 -1 -9 -4z"/>
<path d="M58 324 c-2 -5 4 -25 14 -44 21 -41 24 -27 4 20 -7 18 -15 29 -18 24z"/>
<path d="M140 300 c0 -21 15 -27 25 -10 3 6 1 10 -5 10 -6 0 -8 5 -5 10 3 6 1
10 -4 10 -6 0 -11 -9 -11 -20z"/>
<path d="M0 303 c0 -13 14 -30 30 -35 12 -5 10 -8 -6 -14 -19 -8 -20 -11 -8
-22 8 -7 14 -8 14 -3 0 5 12 7 28 5 23 -4 25 -3 11 8 -8 7 -23 25 -32 41 -16
25 -37 37 -37 20z"/>
<path d="M100 280 c0 -5 5 -10 10 -10 6 0 10 5 10 10 0 6 -4 10 -10 10 -5 0
-10 -4 -10 -10z"/>
<path d="M1176 90 c61 -79 104 -111 104 -80 0 6 -8 10 -17 8 -10 -2 -17 3 -15
10 1 6 -1 11 -6 10 -4 -2 -25 15 -46 37 -22 22 -31 29 -20 15z"/>
<path d="M115 10 c-3 -5 -1 -10 4 -10 6 0 11 5 11 10 0 6 -2 10 -4 10 -3 0 -8
-4 -11 -10z"/>
</g>
</svg>
